<svg xmlns="http://www.w3.org/2000/svg" xmlns:xlink="http://www.w3.org/1999/xlink" style="margin:auto;display:block;z-index:1;position:relative" width="1366" height="641" preserveAspectRatio="xMidYMid" viewBox="0 0 1366 641">
<g transform="translate(683,320.5) scale(1,1) translate(-683,-320.5)"><defs>
  <path id="path-2ullfabwyv2-1" d="M-35 -35L35 -35L35 35L-35 35Z" fill="none" stroke="inherit" stroke-width="4.333333333333334" transform="scale(0.3)"></path>
  <path id="path-2ullfabwyv2-2" d="M0 -37A37 37 0 0 1 0 37A37 37 0 0 1 0 -37" fill="none" stroke="inherit" stroke-width="4.333333333333334" transform="scale(0.3)"></path>
  <path id="path-2ullfabwyv2-3" d="M0 -34.641L40 34.641L-40 34.641Z" fill="none" stroke="inherit" stroke-width="4.333333333333334" transform="scale(0.3)"></path>
</defs><path id="path0" d="M 67.31660820864884 123.25265834297072
c 0 53.87654896017636 -13.182559851958043 15.4751789566464 -28.657738808604446 15.4751789566464
S 10.001130591439956 177.12920730314707 10.001130591439956 123.25265834297072
s 13.182559851958043 -15.4751789566464 28.657738808604446 -15.4751789566464
S 67.31660820864884 69.37610938279437 67.31660820864884 123.25265834297072
z" fill="none" stroke="none"></path>
<use xlink:href="#path-2ullfabwyv2-3" x="0" y="0" stroke="#2dd014">
  <animateMotion begin="-4.25379118637408s" dur="16.0550619731064s" keyPoints="1;0" keyTimes="0;1" repeatCount="indefinite" calcMode="linear">
    <mpath xlink:href="#path0"></mpath>
  </animateMotion>
</use><path id="path1" d="M 93.73052698271093 339.2860436612424
c 0 25.589800125058122 -6.261334073152519 7.35026173804861 -13.611595811201129 7.35026173804861
S 66.50733536030867 364.8758437863005 66.50733536030867 339.2860436612424
s 6.261334073152519 -7.35026173804861 13.611595811201129 -7.35026173804861
S 93.73052698271093 313.6962435361843 93.73052698271093 339.2860436612424
z" fill="none" stroke="none"></path>
<use xlink:href="#path-2ullfabwyv2-1" x="0" y="0" stroke="#0580fb">
  <animateMotion begin="-3.9187341705499823s" dur="14.230715303333398s" keyPoints="1;0" keyTimes="0;1" repeatCount="indefinite" calcMode="linear">
    <mpath xlink:href="#path1"></mpath>
  </animateMotion>
</use><path id="path2" d="M 137.2386448484655 567.248367494086
c 0 36.90149622949445 -9.029089502961407 10.599365938259044 -19.628455441220453 10.599365938259044
S 97.98173396602459 604.1498637235804 97.98173396602459 567.248367494086
s 9.029089502961407 -10.599365938259044 19.628455441220453 -10.599365938259044
S 137.2386448484655 530.3468712645915 137.2386448484655 567.248367494086
z" fill="none" stroke="none"></path>
<use xlink:href="#path-2ullfabwyv2-1" x="0" y="0" stroke="#2dd014">
  <animateMotion begin="-4.087038781753814s" dur="16.383201522893017s" keyPoints="1;0" keyTimes="0;1" repeatCount="indefinite" calcMode="linear">
    <mpath xlink:href="#path2"></mpath>
  </animateMotion>
</use><path id="path3" d="M 159.7410100206507 387.6860468907243
c 0 23.365972710918257 -5.7172060888417 6.711502799944606 -12.428708888786307 6.711502799944606
S 134.88359224307808 411.05201960164254 134.88359224307808 387.6860468907243
s 5.7172060888417 -6.711502799944606 12.428708888786307 -6.711502799944606
S 159.7410100206507 364.32007417980606 159.7410100206507 387.6860468907243
z" fill="none" stroke="none"></path>
<use xlink:href="#path-2ullfabwyv2-1" x="0" y="0" stroke="#0580fb">
  <animateMotion begin="-0.20462317898979232s" dur="19.891252145388844s" keyPoints="1;0" keyTimes="0;1" repeatCount="indefinite" calcMode="linear">
    <mpath xlink:href="#path3"></mpath>
  </animateMotion>
</use><path id="path4" d="M 179.16616736258382 617.0275035553593
c 0 27.827556975486022 -6.808870323789132 7.993021684448113 -14.801892008237246 7.993021684448113
S 149.56238334610933 644.8550605308453 149.56238334610933 617.0275035553593
s 6.808870323789132 -7.993021684448113 14.801892008237246 -7.993021684448113
S 179.16616736258382 589.1999465798733 179.16616736258382 617.0275035553593
z" fill="none" stroke="none"></path>
<use xlink:href="#path-2ullfabwyv2-1" x="0" y="0" stroke="#0580fb">
  <animateMotion begin="-0.78736757995995s" dur="18.25419650549537s" keyPoints="1;0" keyTimes="0;1" repeatCount="indefinite" calcMode="linear">
    <mpath xlink:href="#path4"></mpath>
  </animateMotion>
</use><path id="path5" d="M 239.88622118025174 80.82254686297173
c 0 53.38639396470214 -13.062628310512222 15.334389755818698 -28.397018066330922 15.334389755818698
S 183.09218504758988 134.20894082767387 183.09218504758988 80.82254686297173
s 13.062628310512222 -15.334389755818698 28.397018066330922 -15.334389755818698
S 239.88622118025174 27.436152898269597 239.88622118025174 80.82254686297173
z" fill="none" stroke="none"></path>
<use xlink:href="#path-2ullfabwyv2-3" x="0" y="0" stroke="#2dd014">
  <animateMotion begin="-2.246004872406382s" dur="18.52812885638491s" keyPoints="0;1" keyTimes="0;1" repeatCount="indefinite" calcMode="linear">
    <mpath xlink:href="#path5"></mpath>
  </animateMotion>
</use><path id="path6" d="M 282.7185350051672 177.86626964963241
c 0 45.26180846023746 -11.074697814738952 13.000732217302248 -24.0754300320412 13.000732217302248
S 234.56767494108482 223.12807810986988 234.56767494108482 177.86626964963241
s 11.074697814738952 -13.000732217302248 24.0754300320412 -13.000732217302248
S 282.7185350051672 132.60446118939495 282.7185350051672 177.86626964963241
z" fill="none" stroke="none"></path>
<use xlink:href="#path-2ullfabwyv2-2" x="0" y="0" stroke="#2dd014">
  <animateMotion begin="-0.8598136711730697s" dur="18.24355629919274s" keyPoints="1;0" keyTimes="0;1" repeatCount="indefinite" calcMode="linear">
    <mpath xlink:href="#path6"></mpath>
  </animateMotion>
</use><path id="path7" d="M 306.16879222574465 296.56964808813507
c 0 30.60325351486606 -7.488030115339567 8.790296222355146 -16.278326337694715 8.790296222355146
S 273.61213955035527 327.17290160300115 273.61213955035527 296.56964808813507
s 7.488030115339567 -8.790296222355146 16.278326337694715 -8.790296222355146
S 306.16879222574465 265.966394573269 306.16879222574465 296.56964808813507
z" fill="none" stroke="none"></path>
<use xlink:href="#path-2ullfabwyv2-2" x="0" y="0" stroke="#0580fb">
  <animateMotion begin="-3.0548478375124843s" dur="12.953035689648678s" keyPoints="0;1" keyTimes="0;1" repeatCount="indefinite" calcMode="linear">
    <mpath xlink:href="#path7"></mpath>
  </animateMotion>
</use><path id="path8" d="M 354.5277988714793 77.504385527168
c 0 56.50233188654878 -13.825038653091722 16.2293932014555 -30.054431854547225 16.2293932014555
S 294.4189351623849 134.00671741371679 294.4189351623849 77.504385527168
s 13.825038653091722 -16.2293932014555 30.054431854547225 -16.2293932014555
S 354.5277988714793 21.002053640619216 354.5277988714793 77.504385527168
z" fill="none" stroke="none"></path>
<use xlink:href="#path-2ullfabwyv2-3" x="0" y="0" stroke="#0580fb">
  <animateMotion begin="-0.5345598653336692s" dur="12.869361501622787s" keyPoints="1;0" keyTimes="0;1" repeatCount="indefinite" calcMode="linear">
    <mpath xlink:href="#path8"></mpath>
  </animateMotion>
</use><path id="path9" d="M 372.83040913762403 35.91437988671462
c 0 31.358147761625897 -7.672738282099952 9.00712754855212 -16.679865830652073 9.00712754855212
S 339.47067747631985 67.27252764834051 339.47067747631985 35.91437988671462
s 7.672738282099952 -9.00712754855212 16.679865830652073 -9.00712754855212
S 372.83040913762403 4.556232125088723 372.83040913762403 35.91437988671462
z" fill="none" stroke="none"></path>
<use xlink:href="#path-2ullfabwyv2-2" x="0" y="0" stroke="#f9230b">
  <animateMotion begin="-2.812611819532772s" dur="14.687088643383175s" keyPoints="0;1" keyTimes="0;1" repeatCount="indefinite" calcMode="linear">
    <mpath xlink:href="#path9"></mpath>
  </animateMotion>
</use><path id="path10" d="M 398.2485659430754 168.48121936705755
c 0 24.81756483259584 -6.072382884571321 7.128449473192422 -13.200832357763744 7.128449473192422
S 371.84690122754796 193.2987841996534 371.84690122754796 168.48121936705755
s 6.072382884571321 -7.128449473192422 13.200832357763744 -7.128449473192422
S 398.2485659430754 143.6636545344617 398.2485659430754 168.48121936705755
z" fill="none" stroke="none"></path>
<use xlink:href="#path-2ullfabwyv2-1" x="0" y="0" stroke="#f9230b">
  <animateMotion begin="-4.1632757301660925s" dur="12.366762381517733s" keyPoints="1;0" keyTimes="0;1" repeatCount="indefinite" calcMode="linear">
    <mpath xlink:href="#path10"></mpath>
  </animateMotion>
</use><path id="path11" d="M 456.5168944446583 265.95224416201114
c 0 57.05489499668221 -13.960240265145645 16.38810813734489 -30.348348402490537 16.38810813734489
S 395.8201976396772 323.00713915869335 395.8201976396772 265.95224416201114
s 13.960240265145645 -16.38810813734489 30.348348402490537 -16.38810813734489
S 456.5168944446583 208.89734916532893 456.5168944446583 265.95224416201114
z" fill="none" stroke="none"></path>
<use xlink:href="#path-2ullfabwyv2-1" x="0" y="0" stroke="#2dd014">
  <animateMotion begin="-0.6895194190887444s" dur="11.03169264797733s" keyPoints="1;0" keyTimes="0;1" repeatCount="indefinite" calcMode="linear">
    <mpath xlink:href="#path11"></mpath>
  </animateMotion>
</use><path id="path12" d="M 458.1945074561566 399.37930858244823
c 0 46.69561679377036 -11.425523258050195 13.41257078118936 -24.838094039239557 13.41257078118936
S 408.5183193776775 446.0749253762186 408.5183193776775 399.37930858244823
s 11.425523258050195 -13.41257078118936 24.838094039239557 -13.41257078118936
S 458.1945074561566 352.6836917886779 458.1945074561566 399.37930858244823
z" fill="none" stroke="none"></path>
<use xlink:href="#path-2ullfabwyv2-3" x="0" y="0" stroke="#2dd014">
  <animateMotion begin="-2.504263854786469s" dur="15.705940406422247s" keyPoints="0;1" keyTimes="0;1" repeatCount="indefinite" calcMode="linear">
    <mpath xlink:href="#path12"></mpath>
  </animateMotion>
</use><path id="path13" d="M 525.9320684303365 257.0239485583282
c 0 64.99996137088452 -15.904245867344082 18.67020167036045 -34.57444753770453 18.67020167036045
S 456.7831733549274 322.0239099292127 456.7831733549274 257.0239485583282
s 15.904245867344082 -18.67020167036045 34.57444753770453 -18.67020167036045
S 525.9320684303365 192.02398718744365 525.9320684303365 257.0239485583282
z" fill="none" stroke="none"></path>
<use xlink:href="#path-2ullfabwyv2-2" x="0" y="0" stroke="#2dd014">
  <animateMotion begin="-2.9143336318233604s" dur="18.688020196259465s" keyPoints="0;1" keyTimes="0;1" repeatCount="indefinite" calcMode="linear">
    <mpath xlink:href="#path13"></mpath>
  </animateMotion>
</use><path id="path14" d="M 533.4378496063101 415.86593931588766
c 0 65.40556617607574 -16.003489596273848 18.78670517823452 -34.790194774508365 18.78670517823452
S 463.85746005729334 481.2715054919634 463.85746005729334 415.86593931588766
s 16.003489596273848 -18.78670517823452 34.790194774508365 -18.78670517823452
S 533.4378496063101 350.4603731398119 533.4378496063101 415.86593931588766
z" fill="none" stroke="none"></path>
<use xlink:href="#path-2ullfabwyv2-2" x="0" y="0" stroke="#0580fb">
  <animateMotion begin="-2.384768062920717s" dur="10.790182959512292s" keyPoints="1;0" keyTimes="0;1" repeatCount="indefinite" calcMode="linear">
    <mpath xlink:href="#path14"></mpath>
  </animateMotion>
</use><path id="path15" d="M 565.4675104133975 621.3992871432615
c 0 42.756878147892806 -10.461789334058876 12.281230957373465 -22.74302029143234 12.281230957373465
S 519.9814698305328 664.1561652911544 519.9814698305328 621.3992871432615
s 10.461789334058876 -12.281230957373465 22.74302029143234 -12.281230957373465
S 565.4675104133975 578.6424089953687 565.4675104133975 621.3992871432615
z" fill="none" stroke="none"></path>
<use xlink:href="#path-2ullfabwyv2-3" x="0" y="0" stroke="#f9230b">
  <animateMotion begin="-0.9295147394157333s" dur="16.006049213277297s" keyPoints="1;0" keyTimes="0;1" repeatCount="indefinite" calcMode="linear">
    <mpath xlink:href="#path15"></mpath>
  </animateMotion>
</use><path id="path16" d="M 629.5942483328097 204.7428426349818
c 0 63.99361832759543 -15.658012995049944 18.38114568984124 -34.039158684891184 18.38114568984124
S 561.5159309630274 268.7364609625772 561.5159309630274 204.7428426349818
s 15.658012995049944 -18.38114568984124 34.039158684891184 -18.38114568984124
S 629.5942483328097 140.74922430738638 629.5942483328097 204.7428426349818
z" fill="none" stroke="none"></path>
<use xlink:href="#path-2ullfabwyv2-2" x="0" y="0" stroke="#f9230b">
  <animateMotion begin="-0.6951488413235241s" dur="19.611011578456935s" keyPoints="0;1" keyTimes="0;1" repeatCount="indefinite" calcMode="linear">
    <mpath xlink:href="#path16"></mpath>
  </animateMotion>
</use><path id="path17" d="M 639.17261804238 118.31491292763377
c 0 56.8541374061902 -13.911118727046535 16.330443723054632 -30.241562450101167 16.330443723054632
S 578.6894931421778 175.16905033382398 578.6894931421778 118.31491292763377
s 13.911118727046535 -16.330443723054632 30.241562450101167 -16.330443723054632
S 639.17261804238 61.46077552144357 639.17261804238 118.31491292763377
z" fill="none" stroke="none"></path>
<use xlink:href="#path-2ullfabwyv2-2" x="0" y="0" stroke="#0580fb">
  <animateMotion begin="-0.6426035182902967s" dur="13.625811393893867s" keyPoints="0;1" keyTimes="0;1" repeatCount="indefinite" calcMode="linear">
    <mpath xlink:href="#path17"></mpath>
  </animateMotion>
</use><path id="path18" d="M 672.2908831066394 93.22028177198932
c 0 21.373907896155895 -5.229785974591335 6.139313970172439 -11.369099944763775 6.139313970172439
S 649.5526832171118 114.59418966814522 649.5526832171118 93.22028177198932
s 5.229785974591335 -6.139313970172439 11.369099944763775 -6.139313970172439
S 672.2908831066394 71.84637387583342 672.2908831066394 93.22028177198932
z" fill="none" stroke="none"></path>
<use xlink:href="#path-2ullfabwyv2-1" x="0" y="0" stroke="#0580fb">
  <animateMotion begin="-0.9019913819987224s" dur="18.716058540007793s" keyPoints="1;0" keyTimes="0;1" repeatCount="indefinite" calcMode="linear">
    <mpath xlink:href="#path18"></mpath>
  </animateMotion>
</use><path id="path19" d="M 707.5441604196982 354.11990532751577
c 0 61.554369086570674 -15.061175414799205 17.680510269546897 -32.7416856843461 17.680510269546897
S 642.060789051006 415.6742744140864 642.060789051006 354.11990532751577
s 15.061175414799205 -17.680510269546897 32.7416856843461 -17.680510269546897
S 707.5441604196982 292.5655362409451 707.5441604196982 354.11990532751577
z" fill="none" stroke="none"></path>
<use xlink:href="#path-2ullfabwyv2-2" x="0" y="0" stroke="#f9230b">
  <animateMotion begin="-1.653137727516626s" dur="13.75847939671338s" keyPoints="0;1" keyTimes="0;1" repeatCount="indefinite" calcMode="linear">
    <mpath xlink:href="#path19"></mpath>
  </animateMotion>
</use><path id="path20" d="M 727.6018864369322 42.046120103124665
c 0 41.65928237112102 -10.193228665274292 11.965964085321996 -22.15919275059629 11.965964085321996
S 683.2835009357397 83.70540247424569 683.2835009357397 42.046120103124665
s 10.193228665274292 -11.965964085321996 22.15919275059629 -11.965964085321996
S 727.6018864369322 0.3868377320036416 727.6018864369322 42.046120103124665
z" fill="none" stroke="none"></path>
<use xlink:href="#path-2ullfabwyv2-2" x="0" y="0" stroke="#f9230b">
  <animateMotion begin="-2.730959218490595s" dur="17.06153958646039s" keyPoints="1;0" keyTimes="0;1" repeatCount="indefinite" calcMode="linear">
    <mpath xlink:href="#path20"></mpath>
  </animateMotion>
</use><path id="path21" d="M 772.384040343121 76.2700532750092
c 0 57.03081254549768 -13.954347750494112 16.38119083753657 -30.33553858803068 16.38119083753657
S 711.7129631670597 133.30086582050689 711.7129631670597 76.2700532750092
s 13.954347750494112 -16.38119083753657 30.33553858803068 -16.38119083753657
S 772.384040343121 19.239240729511522 772.384040343121 76.2700532750092
z" fill="none" stroke="none"></path>
<use xlink:href="#path-2ullfabwyv2-1" x="0" y="0" stroke="#f9230b">
  <animateMotion begin="-1.742941084201608s" dur="11.71496042340227s" keyPoints="0;1" keyTimes="0;1" repeatCount="indefinite" calcMode="linear">
    <mpath xlink:href="#path21"></mpath>
  </animateMotion>
</use><path id="path22" d="M 800.8920425550693 445.29599391113925
c 0 53.56720729059031 -13.106869868974222 15.386325498361046 -28.493195367335268 15.386325498361046
S 743.9056518203988 498.86320120172957 743.9056518203988 445.29599391113925
s 13.106869868974222 -15.386325498361046 28.493195367335268 -15.386325498361046
S 800.8920425550693 391.72878662054893 800.8920425550693 445.29599391113925
z" fill="none" stroke="none"></path>
<use xlink:href="#path-2ullfabwyv2-2" x="0" y="0" stroke="#f9230b">
  <animateMotion begin="-3.7662334385060046s" dur="16.302063739334205s" keyPoints="1;0" keyTimes="0;1" repeatCount="indefinite" calcMode="linear">
    <mpath xlink:href="#path22"></mpath>
  </animateMotion>
</use><path id="path23" d="M 850.3287026978679 215.8801180701775
c 0 48.884485461715386 -11.961097506589933 14.041288377301228 -26.00238588389116 14.041288377301228
S 798.3239309300856 264.7646035318929 798.3239309300856 215.8801180701775
s 11.961097506589933 -14.041288377301228 26.00238588389116 -14.041288377301228
S 850.3287026978679 166.99563260846213 850.3287026978679 215.8801180701775
z" fill="none" stroke="none"></path>
<use xlink:href="#path-2ullfabwyv2-2" x="0" y="0" stroke="#f9230b">
  <animateMotion begin="-4.3671683780455615s" dur="19.51056308698519s" keyPoints="0;1" keyTimes="0;1" repeatCount="indefinite" calcMode="linear">
    <mpath xlink:href="#path23"></mpath>
  </animateMotion>
</use><path id="path24" d="M 885.2066959173336 456.4974897080725
c 0 61.555415767427654 -15.061431517562085 17.68081091192071 -32.74224242948279 17.68081091192071
S 819.7222110583681 518.0529054755002 819.7222110583681 456.4974897080725
s 15.061431517562085 -17.68081091192071 32.74224242948279 -17.68081091192071
S 885.2066959173336 394.9420739406449 885.2066959173336 456.4974897080725
z" fill="none" stroke="none"></path>
<use xlink:href="#path-2ullfabwyv2-2" x="0" y="0" stroke="#0580fb">
  <animateMotion begin="-1.1930430987773255s" dur="17.675010412608902s" keyPoints="1;0" keyTimes="0;1" repeatCount="indefinite" calcMode="linear">
    <mpath xlink:href="#path24"></mpath>
  </animateMotion>
</use><path id="path25" d="M 899.4894398185193 502.8007687145325
c 0 49.82093326254847 -12.190228351474625 14.310268064774561 -26.500496416249185 14.310268064774561
S 846.4884469860208 552.621701977081 846.4884469860208 502.8007687145325
s 12.190228351474625 -14.310268064774561 26.500496416249185 -14.310268064774561
S 899.4894398185193 452.97983545198406 899.4894398185193 502.8007687145325
z" fill="none" stroke="none"></path>
<use xlink:href="#path-2ullfabwyv2-3" x="0" y="0" stroke="#2dd014">
  <animateMotion begin="-1.4153172881867548s" dur="19.57501598583182s" keyPoints="0;1" keyTimes="0;1" repeatCount="indefinite" calcMode="linear">
    <mpath xlink:href="#path25"></mpath>
  </animateMotion>
</use><path id="path26" d="M 935.2858236209179 261.44782229060684
c 0 25.34662584549111 -6.201833983471229 7.280413806683618 -13.482247790154847 7.280413806683618
S 908.3213280406083 286.79444813609797 908.3213280406083 261.44782229060684
s 6.201833983471229 -7.280413806683618 13.482247790154847 -7.280413806683618
S 935.2858236209179 236.10119644511573 935.2858236209179 261.44782229060684
z" fill="none" stroke="none"></path>
<use xlink:href="#path-2ullfabwyv2-3" x="0" y="0" stroke="#f9230b">
  <animateMotion begin="-3.744746896318747s" dur="11.552292189378239s" keyPoints="1;0" keyTimes="0;1" repeatCount="indefinite" calcMode="linear">
    <mpath xlink:href="#path26"></mpath>
  </animateMotion>
</use><path id="path27" d="M 971.508443841434 40.6744070011443
c 0 27.567649223740233 -6.7452758738938865 7.9183673302232584 -14.663643204117145 7.9183673302232584
S 942.1811574331996 68.24205622488454 942.1811574331996 40.6744070011443
s 6.7452758738938865 -7.9183673302232584 14.663643204117145 -7.9183673302232584
S 971.508443841434 13.10675777740407 971.508443841434 40.6744070011443
z" fill="none" stroke="none"></path>
<use xlink:href="#path-2ullfabwyv2-2" x="0" y="0" stroke="#2dd014">
  <animateMotion begin="-4.91196294729685s" dur="17.492872216796837s" keyPoints="1;0" keyTimes="0;1" repeatCount="indefinite" calcMode="linear">
    <mpath xlink:href="#path27"></mpath>
  </animateMotion>
</use><path id="path28" d="M 1002.4424326469623 416.3495280795046
c 0 27.95049733585271 -6.838951475793747 8.028334341149183 -14.86728581694293 8.028334341149183
S 972.7078610130764 444.3000254153573 972.7078610130764 416.3495280795046
s 6.838951475793747 -8.028334341149183 14.86728581694293 -8.028334341149183
S 1002.4424326469623 388.39903074365185 1002.4424326469623 416.3495280795046
z" fill="none" stroke="none"></path>
<use xlink:href="#path-2ullfabwyv2-1" x="0" y="0" stroke="#f9230b">
  <animateMotion begin="-4.777093110109433s" dur="19.871194223722554s" keyPoints="1;0" keyTimes="0;1" repeatCount="indefinite" calcMode="linear">
    <mpath xlink:href="#path28"></mpath>
  </animateMotion>
</use><path id="path29" d="M 1051.5982124522982 177.24297280801008
c 0 57.987117976826426 -14.188337377308592 16.655874312492696 -30.844211689801288 16.655874312492696
S 989.9097890726956 235.2300907848365 989.9097890726956 177.24297280801008
s 14.188337377308592 -16.655874312492696 30.844211689801288 -16.655874312492696
S 1051.5982124522982 119.25585483118365 1051.5982124522982 177.24297280801008
z" fill="none" stroke="none"></path>
<use xlink:href="#path-2ullfabwyv2-3" x="0" y="0" stroke="#2dd014">
  <animateMotion begin="-1.5987040783687023s" dur="14.933775390911311s" keyPoints="1;0" keyTimes="0;1" repeatCount="indefinite" calcMode="linear">
    <mpath xlink:href="#path29"></mpath>
  </animateMotion>
</use><path id="path30" d="M 1082.2407771801174 589.8810995761304
c 0 24.424747213235595 -5.976267935153389 7.015618880397459 -12.99188681555085 7.015618880397459
S 1056.257003549016 614.305846789366 1056.257003549016 589.8810995761304
s 5.976267935153389 -7.015618880397459 12.99188681555085 -7.015618880397459
S 1082.2407771801174 565.4563523628948 1082.2407771801174 589.8810995761304
z" fill="none" stroke="none"></path>
<use xlink:href="#path-2ullfabwyv2-2" x="0" y="0" stroke="#f9230b">
  <animateMotion begin="-0.20534177831919243s" dur="12.493515357375035s" keyPoints="1;0" keyTimes="0;1" repeatCount="indefinite" calcMode="linear">
    <mpath xlink:href="#path30"></mpath>
  </animateMotion>
</use><path id="path31" d="M 1126.3324219837148 449.0060818264033
c 0 63.294249870069045 -15.48689092565519 18.180263260551747 -33.667154186206936 18.180263260551747
S 1058.9981136113008 512.3003316964723 1058.9981136113008 449.0060818264033
s 15.48689092565519 -18.180263260551747 33.667154186206936 -18.180263260551747
S 1126.3324219837148 385.71183195633427 1126.3324219837148 449.0060818264033
z" fill="none" stroke="none"></path>
<use xlink:href="#path-2ullfabwyv2-1" x="0" y="0" stroke="#f9230b">
  <animateMotion begin="-0.5249957290411555s" dur="18.764023328346635s" keyPoints="0;1" keyTimes="0;1" repeatCount="indefinite" calcMode="linear">
    <mpath xlink:href="#path31"></mpath>
  </animateMotion>
</use><path id="path32" d="M 1140.1573471460842 517.3740756191517
c 0 45.62353363776119 -11.163205039026675 13.104632002335663 -24.267837041362338 13.104632002335663
S 1091.6216730633596 562.9976092569128 1091.6216730633596 517.3740756191517
s 11.163205039026675 -13.104632002335663 24.267837041362338 -13.104632002335663
S 1140.1573471460842 471.7505419813905 1140.1573471460842 517.3740756191517
z" fill="none" stroke="none"></path>
<use xlink:href="#path-2ullfabwyv2-1" x="0" y="0" stroke="#2dd014">
  <animateMotion begin="-2.13217467003995s" dur="15.80693024666669s" keyPoints="1;0" keyTimes="0;1" repeatCount="indefinite" calcMode="linear">
    <mpath xlink:href="#path32"></mpath>
  </animateMotion>
</use><path id="path33" d="M 1176.3456079804473 263.0256538459611
c 0 60.020618136466354 -14.685895927007724 17.239964783878634 -31.925860710886358 17.239964783878634
S 1112.4938865586746 323.0462719824274 1112.4938865586746 263.0256538459611
s 14.685895927007724 -17.239964783878634 31.925860710886358 -17.239964783878634
S 1176.3456079804473 203.00503570949473 1176.3456079804473 263.0256538459611
z" fill="none" stroke="none"></path>
<use xlink:href="#path-2ullfabwyv2-2" x="0" y="0" stroke="#0580fb">
  <animateMotion begin="-2.494539512049123s" dur="16.981259677147246s" keyPoints="1;0" keyTimes="0;1" repeatCount="indefinite" calcMode="linear">
    <mpath xlink:href="#path33"></mpath>
  </animateMotion>
</use><path id="path34" d="M 1214.1430212371088 319.78345755618903
c 0 43.94697253622841 -10.75298264184312 12.623066579554967 -23.376049221398087 12.623066579554967
S 1167.3909227943127 363.73043009241746 1167.3909227943127 319.78345755618903
s 10.75298264184312 -12.623066579554967 23.376049221398087 -12.623066579554967
S 1214.1430212371088 275.8364850199606 1214.1430212371088 319.78345755618903
z" fill="none" stroke="none"></path>
<use xlink:href="#path-2ullfabwyv2-2" x="0" y="0" stroke="#2dd014">
  <animateMotion begin="-4.520615159932609s" dur="11.950084305551352s" keyPoints="0;1" keyTimes="0;1" repeatCount="indefinite" calcMode="linear">
    <mpath xlink:href="#path34"></mpath>
  </animateMotion>
</use><path id="path35" d="M 1239.350777062781 350.76926174238855
c 0 44.881504140072245 -10.981644630017676 12.891495870020751 -23.873140500038428 12.891495870020751
S 1191.604496062704 395.6507658824608 1191.604496062704 350.76926174238855
s 10.981644630017676 -12.891495870020751 23.873140500038428 -12.891495870020751
S 1239.350777062781 305.8877576023163 1239.350777062781 350.76926174238855
z" fill="none" stroke="none"></path>
<use xlink:href="#path-2ullfabwyv2-2" x="0" y="0" stroke="#f9230b">
  <animateMotion begin="-0.07775400341437977s" dur="17.252946454571028s" keyPoints="1;0" keyTimes="0;1" repeatCount="indefinite" calcMode="linear">
    <mpath xlink:href="#path35"></mpath>
  </animateMotion>
</use><path id="path36" d="M 1276.9530154727497 454.30193764213533
c 0 22.992970835582216 -5.625939672536074 6.604363963411914 -12.230303635947987 6.604363963411914
S 1252.4924082008536 477.29490847771757 1252.4924082008536 454.30193764213533
s 5.625939672536074 -6.604363963411914 12.230303635947987 -6.604363963411914
S 1276.9530154727497 431.3089668065531 1276.9530154727497 454.30193764213533
z" fill="none" stroke="none"></path>
<use xlink:href="#path-2ullfabwyv2-2" x="0" y="0" stroke="#0580fb">
  <animateMotion begin="-3.8381410047481745s" dur="17.463419995866886s" keyPoints="0;1" keyTimes="0;1" repeatCount="indefinite" calcMode="linear">
    <mpath xlink:href="#path36"></mpath>
  </animateMotion>
</use><path id="path37" d="M 1340.7918012774703 106.85378292269439
c 0 48.57760134531834 -11.886008839811934 13.953140811953142 -25.839149651765076 13.953140811953142
S 1289.11350197394 155.43138426801272 1289.11350197394 106.85378292269439
s 11.886008839811934 -13.953140811953142 25.839149651765076 -13.953140811953142
S 1340.7918012774703 58.27618157737605 1340.7918012774703 106.85378292269439
z" fill="none" stroke="none"></path>
<use xlink:href="#path-2ullfabwyv2-1" x="0" y="0" stroke="#0580fb">
  <animateMotion begin="-1.9273232892600367s" dur="19.17402330858559s" keyPoints="0;1" keyTimes="0;1" repeatCount="indefinite" calcMode="linear">
    <mpath xlink:href="#path37"></mpath>
  </animateMotion>
</use><path id="path38" d="M 1345.4853108773264 409.2285055061841
c 0 30.62279674279893 -7.492811968982716 8.795909702718841 -16.28872167170156 8.795909702718841
S 1312.9078675339233 439.851302248983 1312.9078675339233 409.2285055061841
s 7.492811968982716 -8.795909702718841 16.28872167170156 -8.795909702718841
S 1345.4853108773264 378.60570876338517 1345.4853108773264 409.2285055061841
z" fill="none" stroke="none"></path>
<use xlink:href="#path-2ullfabwyv2-3" x="0" y="0" stroke="#0580fb">
  <animateMotion begin="-0.18672709540550003s" dur="11.902312010190697s" keyPoints="0;1" keyTimes="0;1" repeatCount="indefinite" calcMode="linear">
    <mpath xlink:href="#path38"></mpath>
  </animateMotion>
</use></g>
</svg>